<svg width="18" height="18" viewBox="0 0 18 18" fill="none" xmlns="http://www.w3.org/2000/svg">
<g clip-path="url(#clip0_4335_139961)">
<path d="M9 0L12.915 2.21902L16.7942 4.5L16.83 9L16.7942 13.5L12.915 15.781L9 18L5.085 15.781L1.20577 13.5L1.17 9L1.20577 4.5L5.085 2.21902L9 0Z" fill="#6053F3"/>
<path d="M8.36571 6.26721C8.36571 5.1336 7.75931 4 6.70949 4C5.65966 4 4.80859 5.1336 4.80859 6.26721C4.80859 7.56114 5.41421 8.02472 6.23384 8.33327L6.04973 13.3662C6.03821 13.8231 6.33585 14.2024 6.70949 14.2024C7.08304 14.2024 7.38076 13.8231 7.36924 13.3662L7.18513 8.33327C8.00476 8.02481 8.36571 7.56114 8.36571 6.26721Z" fill="white"/>
<path d="M12.1445 4.02881C11.947 4.02881 11.7869 4.20742 11.7869 4.4277V6.61104C11.7869 6.82745 11.6297 7.00285 11.4356 7.00285C11.2416 7.00285 11.0844 6.82745 11.0844 6.61104V4.4277C11.0844 4.20742 10.9242 4.02881 10.7268 4.02881H10.6504C10.4529 4.02881 10.2928 4.20742 10.2928 4.4277V6.61104C10.2928 6.82745 10.1355 7.00285 9.94152 7.00285C9.7475 7.00285 9.59025 6.82745 9.59025 6.61104V4.4277C9.59025 4.20742 9.43012 4.02881 9.23262 4.02881C9.03513 4.02881 8.875 4.20742 8.875 4.4277V6.70356C8.875 7.55673 9.45266 8.25935 10.1954 8.35168L10.029 13.3628C10.0174 13.8197 10.3151 14.1991 10.6887 14.1991C11.0623 14.1991 11.36 13.8197 11.3485 13.3628L11.182 8.35168C11.9248 8.25935 12.5024 7.55673 12.5024 6.70356V4.4277C12.5024 4.20742 12.342 4.02881 12.1445 4.02881Z" fill="white"/>
</g>
<defs>
<clipPath id="clip0_4335_139961">
<rect width="17.3086" height="18" fill="white"/>
</clipPath>
</defs>
</svg>
